<?xml version="1.0" standalone="no"?>
<!DOCTYPE svg PUBLIC "-//W3C//DTD SVG 20010904//EN"
 "http://www.w3.org/TR/2001/REC-SVG-20010904/DTD/svg10.dtd">
<svg version="1.0" xmlns="http://www.w3.org/2000/svg"
 width="2000.000000pt" height="2000.000000pt" viewBox="0 0 2000.000000 2000.000000"
 preserveAspectRatio="xMidYMid meet">

<g transform="translate(0.000000,2000.000000) scale(0.100000,-0.100000)"
fill="#000000" stroke="none">
<path d="M0 10000 l0 -10000 10000 0 10000 0 0 10000 0 10000 -10000 0 -10000
0 0 -10000z m13426 6363 c41 -23 52 -59 78 -237 15 -106 33 -189 43 -206 27
-46 52 -52 199 -44 150 8 172 1 199 -59 8 -18 75 -275 149 -572 74 -297 138
-549 142 -560 22 -57 56 -65 260 -65 269 0 264 6 264 -303 0 -202 1 -216 21
-241 16 -20 29 -26 60 -26 29 0 47 -7 65 -25 l25 -25 -3 -196 -3 -196 -33 -29
-32 -29 -4856 0 c-4311 0 -4858 2 -4884 15 -16 8 -34 24 -40 34 -5 11 -10 78
-10 149 0 109 3 132 17 149 25 28 57 43 92 43 20 0 42 10 63 29 l33 29 5 317
5 317 33 29 c36 32 40 33 247 31 66 -1 132 2 147 5 49 10 73 46 105 160 17 59
60 209 96 333 36 124 86 297 111 385 41 140 50 163 78 188 l32 27 2661 0
c2641 0 2660 0 2693 20 18 11 36 30 41 43 5 13 28 115 50 227 49 243 46 232
72 261 15 18 35 25 77 30 31 3 422 5 867 5 614 -1 815 -4 831 -13z m-3944
-3120 c13 -16 46 -176 92 -453 14 -83 89 -500 162 -905 20 -110 47 -258 59
-330 13 -71 35 -202 50 -290 16 -90 35 -168 43 -177 21 -25 78 -24 92 2 10 19
36 134 65 290 8 41 26 131 40 200 15 69 33 157 40 195 7 39 56 279 108 535 53
256 116 566 141 689 29 143 51 230 62 242 17 18 73 19 1868 19 1611 -1 1854
-3 1870 -15 19 -14 19 -20 7 -122 -7 -60 -23 -171 -36 -248 -13 -77 -26 -165
-30 -195 -4 -30 -17 -120 -30 -200 -13 -80 -35 -219 -49 -310 -14 -91 -37
-239 -51 -330 -14 -91 -32 -210 -40 -265 -9 -55 -20 -127 -25 -160 -5 -33 -21
-136 -35 -230 -24 -156 -63 -407 -100 -645 -8 -52 -31 -203 -50 -335 -20 -132
-44 -294 -55 -360 -24 -146 -33 -209 -94 -605 -14 -91 -39 -253 -55 -360 -32
-203 -93 -604 -111 -725 -12 -80 -64 -416 -85 -550 -8 -49 -31 -196 -50 -325
-19 -129 -40 -262 -45 -295 -15 -93 -110 -713 -155 -1005 -7 -52 -26 -169 -40
-260 -14 -91 -30 -194 -36 -230 -25 -164 -172 -1122 -194 -1265 -64 -430 -78
-511 -86 -527 -5 -10 -20 -20 -33 -24 -36 -9 -1425 -50 -1445 -42 -10 3 -21
14 -24 22 -4 9 -9 1010 -12 2224 -4 1214 -8 2217 -11 2230 -6 28 -44 47 -77
38 -33 -8 -29 4 -146 -416 -5 -19 -35 -123 -66 -230 -31 -107 -64 -220 -72
-250 -8 -30 -30 -107 -48 -170 -19 -63 -63 -218 -99 -345 -36 -126 -71 -246
-77 -265 -7 -19 -15 -48 -19 -65 -9 -35 -355 -1246 -369 -1290 -6 -16 -23 -77
-40 -135 -16 -58 -55 -193 -86 -300 -31 -107 -65 -224 -74 -260 -84 -305 -95
-330 -146 -330 -36 0 -50 28 -89 175 -20 77 -47 183 -61 235 -14 52 -62 237
-106 410 -44 173 -93 362 -109 420 -16 58 -47 177 -70 265 -83 325 -132 513
-167 645 -19 74 -42 164 -49 199 -8 35 -16 66 -18 70 -3 4 -18 58 -35 121 -16
63 -45 176 -65 250 -19 74 -64 250 -100 390 -36 140 -84 325 -106 410 -23 85
-51 192 -63 237 -19 74 -24 83 -51 93 -36 12 -73 -7 -78 -42 -2 -13 0 -558 3
-1213 10 -1929 10 -3048 -1 -3065 -8 -13 -109 -15 -788 -18 -733 -2 -781 -1
-801 15 -16 14 -24 39 -36 123 -20 145 -97 702 -140 1015 -20 143 -51 375 -71
515 -19 140 -37 273 -40 295 -2 22 -9 67 -14 100 -9 57 -25 169 -85 610 -14
105 -37 269 -50 365 -13 96 -36 261 -50 365 -14 105 -37 267 -50 360 -13 94
-36 256 -50 360 -27 200 -84 612 -136 980 -17 121 -37 270 -45 330 -8 61 -27
205 -43 320 -17 116 -39 280 -51 365 -45 332 -61 448 -110 800 -88 637 -128
928 -165 1195 -46 333 -92 664 -151 1087 -44 319 -46 339 -30 363 l16 25 1819
0 c1719 0 1819 -1 1833 -17z"/>
</g>
</svg>
